<?xml version="1.0" encoding="UTF-8" ?>
<svg version="1.1" width="128" height="128" xmlns="http://www.w3.org/2000/svg" shape-rendering="crispEdges">
<rect x="0" y="0" width="128" height="2" fill="#000000" />
<rect x="0" y="2" width="2" height="126" fill="#000000" />
<rect x="2" y="2" width="124" height="2" fill="#2A2C86" />
<rect x="126" y="2" width="2" height="126" fill="#000000" />
<rect x="2" y="4" width="78" height="2" fill="#2A2C86" />
<rect x="80" y="4" width="2" height="2" fill="#2C2E87" />
<rect x="82" y="4" width="2" height="2" fill="#2F3188" />
<rect x="84" y="4" width="2" height="2" fill="#31338A" />
<rect x="86" y="4" width="2" height="2" fill="#2F3188" />
<rect x="88" y="4" width="2" height="2" fill="#2C2E87" />
<rect x="90" y="4" width="36" height="6" fill="#2A2C86" />
<rect x="2" y="6" width="56" height="2" fill="#2A2C86" />
<rect x="58" y="6" width="2" height="2" fill="#595AA0" />
<rect x="60" y="6" width="8" height="2" fill="#7172AE" />
<rect x="68" y="6" width="2" height="2" fill="#595AA0" />
<rect x="70" y="6" width="10" height="6" fill="#2A2C86" />
<rect x="80" y="6" width="2" height="2" fill="#2F3188" />
<rect x="82" y="6" width="2" height="2" fill="#34368B" />
<rect x="84" y="6" width="2" height="2" fill="#393B8E" />
<rect x="86" y="6" width="2" height="2" fill="#34368B" />
<rect x="88" y="6" width="2" height="2" fill="#2F3188" />
<rect x="2" y="8" width="12" height="20" fill="#2A2C86" />
<rect x="14" y="8" width="2" height="2" fill="#2C2E87" />
<rect x="16" y="8" width="2" height="2" fill="#2F3188" />
<rect x="18" y="8" width="2" height="2" fill="#31338A" />
<rect x="20" y="8" width="2" height="2" fill="#2F3188" />
<rect x="22" y="8" width="2" height="2" fill="#2C2E87" />
<rect x="24" y="8" width="34" height="4" fill="#2A2C86" />
<rect x="58" y="8" width="2" height="2" fill="#7172AE" />
<rect x="60" y="8" width="2" height="2" fill="#8889BB" />
<rect x="62" y="8" width="4" height="2" fill="#7172AE" />
<rect x="66" y="8" width="2" height="2" fill="#8889BB" />
<rect x="68" y="8" width="2" height="2" fill="#7172AE" />
<rect x="80" y="8" width="2" height="2" fill="#31338A" />
<rect x="82" y="8" width="2" height="2" fill="#393B8E" />
<rect x="84" y="8" width="2" height="2" fill="#FFFFFF" />
<rect x="86" y="8" width="2" height="2" fill="#393B8E" />
<rect x="88" y="8" width="2" height="2" fill="#31338A" />
<rect x="14" y="10" width="2" height="2" fill="#2F3188" />
<rect x="16" y="10" width="2" height="2" fill="#34368B" />
<rect x="18" y="10" width="2" height="2" fill="#393B8E" />
<rect x="20" y="10" width="2" height="2" fill="#34368B" />
<rect x="22" y="10" width="2" height="2" fill="#2F3188" />
<rect x="58" y="10" width="2" height="2" fill="#696AA2" />
<rect x="60" y="10" width="2" height="2" fill="#5F6097" />
<rect x="62" y="10" width="4" height="2" fill="#262875" />
<rect x="66" y="10" width="2" height="2" fill="#5F6097" />
<rect x="68" y="10" width="2" height="2" fill="#696AA2" />
<rect x="80" y="10" width="2" height="2" fill="#2F3188" />
<rect x="82" y="10" width="2" height="2" fill="#34368B" />
<rect x="84" y="10" width="2" height="2" fill="#393B8E" />
<rect x="86" y="10" width="2" height="2" fill="#34368B" />
<rect x="88" y="10" width="2" height="2" fill="#2F3188" />
<rect x="90" y="10" width="22" height="16" fill="#2A2C86" />
<rect x="112" y="10" width="2" height="2" fill="#2C2E87" />
<rect x="114" y="10" width="2" height="2" fill="#2F3188" />
<rect x="116" y="10" width="2" height="2" fill="#31338A" />
<rect x="118" y="10" width="2" height="2" fill="#2F3188" />
<rect x="120" y="10" width="2" height="2" fill="#2C2E87" />
<rect x="122" y="10" width="4" height="38" fill="#2A2C86" />
<rect x="14" y="12" width="2" height="2" fill="#31338A" />
<rect x="16" y="12" width="2" height="2" fill="#393B8E" />
<rect x="18" y="12" width="2" height="2" fill="#FFFFFF" />
<rect x="20" y="12" width="2" height="2" fill="#393B8E" />
<rect x="22" y="12" width="2" height="2" fill="#31338A" />
<rect x="24" y="12" width="32" height="2" fill="#2A2C86" />
<rect x="56" y="12" width="2" height="8" fill="#7172AE" />
<rect x="58" y="12" width="2" height="2" fill="#5C5D91" />
<rect x="60" y="12" width="2" height="2" fill="#474875" />
<rect x="62" y="12" width="4" height="2" fill="#1C1D55" />
<rect x="66" y="12" width="2" height="2" fill="#474875" />
<rect x="68" y="12" width="2" height="2" fill="#5C5D91" />
<rect x="70" y="12" width="2" height="8" fill="#7172AE" />
<rect x="72" y="12" width="8" height="12" fill="#2A2C86" />
<rect x="80" y="12" width="2" height="2" fill="#2C2E87" />
<rect x="82" y="12" width="2" height="2" fill="#2F3188" />
<rect x="84" y="12" width="2" height="2" fill="#31338A" />
<rect x="86" y="12" width="2" height="2" fill="#2F3188" />
<rect x="88" y="12" width="2" height="2" fill="#2C2E87" />
<rect x="112" y="12" width="2" height="2" fill="#2F3188" />
<rect x="114" y="12" width="2" height="2" fill="#34368B" />
<rect x="116" y="12" width="2" height="2" fill="#393B8E" />
<rect x="118" y="12" width="2" height="2" fill="#34368B" />
<rect x="120" y="12" width="2" height="2" fill="#2F3188" />
<rect x="14" y="14" width="2" height="2" fill="#2F3188" />
<rect x="16" y="14" width="2" height="2" fill="#34368B" />
<rect x="18" y="14" width="2" height="2" fill="#393B8E" />
<rect x="20" y="14" width="2" height="2" fill="#34368B" />
<rect x="22" y="14" width="2" height="2" fill="#2F3188" />
<rect x="24" y="14" width="14" height="4" fill="#2A2C86" />
<rect x="38" y="14" width="2" height="2" fill="#2C2E87" />
<rect x="40" y="14" width="2" height="2" fill="#2F3188" />
<rect x="42" y="14" width="2" height="2" fill="#31338A" />
<rect x="44" y="14" width="2" height="2" fill="#2F3188" />
<rect x="46" y="14" width="2" height="2" fill="#2C2E87" />
<rect x="48" y="14" width="8" height="10" fill="#2A2C86" />
<rect x="58" y="14" width="2" height="4" fill="#636381" />
<rect x="60" y="14" width="2" height="2" fill="#12133B" />
<rect x="62" y="14" width="4" height="2" fill="#09091D" />
<rect x="66" y="14" width="2" height="2" fill="#12133B" />
<rect x="68" y="14" width="2" height="4" fill="#636381" />
<rect x="80" y="14" width="10" height="16" fill="#2A2C86" />
<rect x="112" y="14" width="2" height="2" fill="#31338A" />
<rect x="114" y="14" width="2" height="2" fill="#393B8E" />
<rect x="116" y="14" width="2" height="2" fill="#FFFFFF" />
<rect x="118" y="14" width="2" height="2" fill="#393B8E" />
<rect x="120" y="14" width="2" height="2" fill="#31338A" />
<rect x="14" y="16" width="2" height="2" fill="#2C2E87" />
<rect x="16" y="16" width="2" height="2" fill="#2F3188" />
<rect x="18" y="16" width="2" height="2" fill="#31338A" />
<rect x="20" y="16" width="2" height="2" fill="#2F3188" />
<rect x="22" y="16" width="2" height="2" fill="#2C2E87" />
<rect x="38" y="16" width="2" height="2" fill="#2F3188" />
<rect x="40" y="16" width="2" height="2" fill="#34368B" />
<rect x="42" y="16" width="2" height="2" fill="#393B8E" />
<rect x="44" y="16" width="2" height="2" fill="#34368B" />
<rect x="46" y="16" width="2" height="2" fill="#2F3188" />
<rect x="60" y="16" width="2" height="2" fill="#0E0E2C" />
<rect x="62" y="16" width="4" height="2" fill="#000000" />
<rect x="66" y="16" width="2" height="2" fill="#0E0E2C" />
<rect x="112" y="16" width="2" height="2" fill="#2F3188" />
<rect x="114" y="16" width="2" height="2" fill="#34368B" />
<rect x="116" y="16" width="2" height="2" fill="#393B8E" />
<rect x="118" y="16" width="2" height="2" fill="#34368B" />
<rect x="120" y="16" width="2" height="2" fill="#2F3188" />
<rect x="14" y="18" width="14" height="14" fill="#2A2C86" />
<rect x="28" y="18" width="2" height="2" fill="#2C2E87" />
<rect x="30" y="18" width="2" height="2" fill="#2F3188" />
<rect x="32" y="18" width="2" height="2" fill="#31338A" />
<rect x="34" y="18" width="2" height="2" fill="#2F3188" />
<rect x="36" y="18" width="2" height="2" fill="#2C2E87" />
<rect x="38" y="18" width="2" height="2" fill="#31338A" />
<rect x="40" y="18" width="2" height="2" fill="#393B8E" />
<rect x="42" y="18" width="2" height="2" fill="#FFFFFF" />
<rect x="44" y="18" width="2" height="2" fill="#393B8E" />
<rect x="46" y="18" width="2" height="2" fill="#31338A" />
<rect x="58" y="18" width="2" height="2" fill="#676890" />
<rect x="60" y="18" width="2" height="2" fill="#12133B" />
<rect x="62" y="18" width="4" height="2" fill="#04040E" />
<rect x="66" y="18" width="2" height="2" fill="#12133B" />
<rect x="68" y="18" width="2" height="2" fill="#676890" />
<rect x="112" y="18" width="2" height="2" fill="#2C2E87" />
<rect x="114" y="18" width="2" height="2" fill="#2F3188" />
<rect x="116" y="18" width="2" height="2" fill="#31338A" />
<rect x="118" y="18" width="2" height="2" fill="#2F3188" />
<rect x="120" y="18" width="2" height="2" fill="#2C2E87" />
<rect x="28" y="20" width="2" height="2" fill="#2F3188" />
<rect x="30" y="20" width="2" height="2" fill="#34368B" />
<rect x="32" y="20" width="2" height="2" fill="#393B8E" />
<rect x="34" y="20" width="2" height="2" fill="#34368B" />
<rect x="36" y="20" width="4" height="2" fill="#2F3188" />
<rect x="40" y="20" width="2" height="2" fill="#34368B" />
<rect x="42" y="20" width="2" height="2" fill="#393B8E" />
<rect x="44" y="20" width="2" height="2" fill="#34368B" />
<rect x="46" y="20" width="2" height="2" fill="#2F3188" />
<rect x="56" y="20" width="2" height="2" fill="#60619A" />
<rect x="58" y="20" width="2" height="2" fill="#5B5C83" />
<rect x="60" y="20" width="2" height="2" fill="#1F2044" />
<rect x="62" y="20" width="4" height="2" fill="#131321" />
<rect x="66" y="20" width="2" height="2" fill="#1F2044" />
<rect x="68" y="20" width="2" height="2" fill="#5B5C83" />
<rect x="70" y="20" width="2" height="2" fill="#60619A" />
<rect x="112" y="20" width="10" height="12" fill="#2A2C86" />
<rect x="28" y="22" width="2" height="2" fill="#31338A" />
<rect x="30" y="22" width="2" height="2" fill="#393B8E" />
<rect x="32" y="22" width="2" height="2" fill="#FFFFFF" />
<rect x="34" y="22" width="2" height="2" fill="#393B8E" />
<rect x="36" y="22" width="2" height="2" fill="#31338A" />
<rect x="38" y="22" width="2" height="2" fill="#2C2E87" />
<rect x="40" y="22" width="2" height="2" fill="#2F3188" />
<rect x="42" y="22" width="2" height="2" fill="#31338A" />
<rect x="44" y="22" width="2" height="2" fill="#2F3188" />
<rect x="46" y="22" width="2" height="2" fill="#2C2E87" />
<rect x="56" y="22" width="2" height="2" fill="#47476E" />
<rect x="58" y="22" width="2" height="2" fill="#494960" />
<rect x="60" y="22" width="2" height="2" fill="#2E2E43" />
<rect x="62" y="22" width="4" height="2" fill="#2A2934" />
<rect x="66" y="22" width="2" height="2" fill="#2E2E43" />
<rect x="68" y="22" width="2" height="2" fill="#494960" />
<rect x="70" y="22" width="2" height="2" fill="#47476E" />
<rect x="28" y="24" width="2" height="2" fill="#2F3188" />
<rect x="30" y="24" width="2" height="2" fill="#34368B" />
<rect x="32" y="24" width="2" height="2" fill="#393B8E" />
<rect x="34" y="24" width="2" height="2" fill="#34368B" />
<rect x="36" y="24" width="2" height="2" fill="#2F3188" />
<rect x="38" y="24" width="16" height="16" fill="#2A2C86" />
<rect x="54" y="24" width="2" height="2" fill="#313267" />
<rect x="56" y="24" width="2" height="2" fill="#393951" />
<rect x="58" y="24" width="2" height="2" fill="#434146" />
<rect x="60" y="24" width="2" height="2" fill="#454445" />
<rect x="62" y="24" width="4" height="2" fill="#464445" />
<rect x="66" y="24" width="2" height="2" fill="#454445" />
<rect x="68" y="24" width="2" height="2" fill="#434146" />
<rect x="70" y="24" width="2" height="2" fill="#393951" />
<rect x="72" y="24" width="2" height="2" fill="#313267" />
<rect x="74" y="24" width="6" height="6" fill="#2A2C86" />
<rect x="28" y="26" width="2" height="2" fill="#2C2E87" />
<rect x="30" y="26" width="2" height="2" fill="#2F3188" />
<rect x="32" y="26" width="2" height="2" fill="#31338A" />
<rect x="34" y="26" width="2" height="2" fill="#2F3188" />
<rect x="36" y="26" width="2" height="2" fill="#2C2E87" />
<rect x="54" y="26" width="2" height="22" fill="#2A2C86" />
<rect x="56" y="26" width="2" height="2" fill="#3B3A5B" />
<rect x="58" y="26" width="2" height="2" fill="#474654" />
<rect x="60" y="26" width="2" height="2" fill="#4F4D53" />
<rect x="62" y="26" width="4" height="2" fill="#504E52" />
<rect x="66" y="26" width="2" height="2" fill="#4F4D53" />
<rect x="68" y="26" width="2" height="2" fill="#474655" />
<rect x="70" y="26" width="2" height="2" fill="#3B3A5B" />
<rect x="72" y="26" width="2" height="2" fill="#2A2C86" />
<rect x="90" y="26" width="6" height="16" fill="#2A2C86" />
<rect x="96" y="26" width="2" height="2" fill="#2C2E87" />
<rect x="98" y="26" width="4" height="2" fill="#2F3188" />
<rect x="102" y="26" width="2" height="2" fill="#2C2E87" />
<rect x="104" y="26" width="8" height="6" fill="#2A2C86" />
<rect x="2" y="28" width="2" height="30" fill="#2A2C86" />
<rect x="4" y="28" width="2" height="2" fill="#2C2E87" />
<rect x="6" y="28" width="2" height="2" fill="#2F3188" />
<rect x="8" y="28" width="2" height="2" fill="#31338A" />
<rect x="10" y="28" width="2" height="2" fill="#2F3188" />
<rect x="12" y="28" width="2" height="2" fill="#2C2E87" />
<rect x="28" y="28" width="10" height="4" fill="#2A2C86" />
<rect x="56" y="28" width="2" height="16" fill="#2A2C86" />
<rect x="58" y="28" width="2" height="2" fill="#34355C" />
<rect x="60" y="28" width="2" height="2" fill="#3D3D55" />
<rect x="62" y="28" width="4" height="2" fill="#414054" />
<rect x="66" y="28" width="2" height="2" fill="#3D3D56" />
<rect x="68" y="28" width="2" height="2" fill="#34355C" />
<rect x="70" y="28" width="2" height="16" fill="#2A2C86" />
<rect x="72" y="28" width="2" height="2" fill="#2B2D81" />
<rect x="96" y="28" width="2" height="2" fill="#2F3188" />
<rect x="98" y="28" width="4" height="2" fill="#34368B" />
<rect x="102" y="28" width="2" height="2" fill="#2F3188" />
<rect x="4" y="30" width="2" height="2" fill="#2F3188" />
<rect x="6" y="30" width="2" height="2" fill="#34368B" />
<rect x="8" y="30" width="2" height="2" fill="#393B8E" />
<rect x="10" y="30" width="2" height="2" fill="#34368B" />
<rect x="12" y="30" width="2" height="2" fill="#2F3188" />
<rect x="58" y="30" width="4" height="6" fill="#2A2C86" />
<rect x="62" y="30" width="2" height="2" fill="#34355C" />
<rect x="64" y="30" width="2" height="2" fill="#333460" />
<rect x="66" y="30" width="4" height="6" fill="#2A2C86" />
<rect x="72" y="30" width="2" height="2" fill="#2C2E87" />
<rect x="74" y="30" width="2" height="2" fill="#2F3188" />
<rect x="76" y="30" width="2" height="2" fill="#31338A" />
<rect x="78" y="30" width="2" height="2" fill="#2F3188" />
<rect x="80" y="30" width="2" height="2" fill="#2C2E87" />
<rect x="82" y="30" width="8" height="12" fill="#2A2C86" />
<rect x="96" y="30" width="2" height="2" fill="#31338A" />
<rect x="98" y="30" width="2" height="2" fill="#393B8E" />
<rect x="100" y="30" width="2" height="2" fill="#FFFFFF" />
<rect x="102" y="30" width="2" height="2" fill="#31338A" />
<rect x="4" y="32" width="2" height="2" fill="#31338A" />
<rect x="6" y="32" width="2" height="2" fill="#393B8E" />
<rect x="8" y="32" width="2" height="2" fill="#FFFFFF" />
<rect x="10" y="32" width="2" height="2" fill="#393B8E" />
<rect x="12" y="32" width="2" height="2" fill="#31338A" />
<rect x="14" y="32" width="10" height="16" fill="#2A2C86" />
<rect x="24" y="32" width="2" height="2" fill="#2C2E87" />
<rect x="26" y="32" width="2" height="2" fill="#2F3188" />
<rect x="28" y="32" width="2" height="2" fill="#31338A" />
<rect x="30" y="32" width="2" height="2" fill="#2F3188" />
<rect x="32" y="32" width="2" height="2" fill="#2C2E87" />
<rect x="34" y="32" width="4" height="4" fill="#2A2C86" />
<rect x="62" y="32" width="4" height="2" fill="#2A2C86" />
<rect x="72" y="32" width="2" height="2" fill="#2F3188" />
<rect x="74" y="32" width="2" height="2" fill="#34368B" />
<rect x="76" y="32" width="2" height="2" fill="#393B8E" />
<rect x="78" y="32" width="2" height="2" fill="#34368B" />
<rect x="80" y="32" width="2" height="2" fill="#2F3188" />
<rect x="96" y="32" width="2" height="2" fill="#2F3188" />
<rect x="98" y="32" width="4" height="2" fill="#34368B" />
<rect x="102" y="32" width="2" height="2" fill="#2F3188" />
<rect x="104" y="32" width="4" height="16" fill="#2A2C86" />
<rect x="108" y="32" width="2" height="2" fill="#2C2E87" />
<rect x="110" y="32" width="2" height="2" fill="#2F3188" />
<rect x="112" y="32" width="2" height="2" fill="#31338A" />
<rect x="114" y="32" width="2" height="2" fill="#2F3188" />
<rect x="116" y="32" width="2" height="2" fill="#2C2E87" />
<rect x="118" y="32" width="4" height="12" fill="#2A2C86" />
<rect x="4" y="34" width="2" height="2" fill="#2F3188" />
<rect x="6" y="34" width="2" height="2" fill="#34368B" />
<rect x="8" y="34" width="2" height="2" fill="#393B8E" />
<rect x="10" y="34" width="2" height="2" fill="#34368B" />
<rect x="12" y="34" width="2" height="2" fill="#2F3188" />
<rect x="24" y="34" width="2" height="2" fill="#2F3188" />
<rect x="26" y="34" width="2" height="2" fill="#34368B" />
<rect x="28" y="34" width="2" height="2" fill="#393B8E" />
<rect x="30" y="34" width="2" height="2" fill="#34368B" />
<rect x="32" y="34" width="2" height="2" fill="#2F3188" />
<rect x="62" y="34" width="4" height="2" fill="#326867" />
<rect x="72" y="34" width="2" height="2" fill="#31338A" />
<rect x="74" y="34" width="2" height="2" fill="#393B8E" />
<rect x="76" y="34" width="2" height="2" fill="#FFFFFF" />
<rect x="78" y="34" width="2" height="2" fill="#393B8E" />
<rect x="80" y="34" width="2" height="2" fill="#31338A" />
<rect x="96" y="34" width="2" height="2" fill="#2C2E87" />
<rect x="98" y="34" width="4" height="2" fill="#2F3188" />
<rect x="102" y="34" width="2" height="2" fill="#2C2E87" />
<rect x="108" y="34" width="2" height="2" fill="#2F3188" />
<rect x="110" y="34" width="2" height="2" fill="#34368B" />
<rect x="112" y="34" width="2" height="2" fill="#393B8E" />
<rect x="114" y="34" width="2" height="2" fill="#34368B" />
<rect x="116" y="34" width="2" height="2" fill="#2F3188" />
<rect x="4" y="36" width="2" height="12" fill="#2A2C86" />
<rect x="6" y="36" width="2" height="2" fill="#2F3188" />
<rect x="8" y="36" width="2" height="2" fill="#31338A" />
<rect x="10" y="36" width="2" height="2" fill="#2F3188" />
<rect x="12" y="36" width="2" height="2" fill="#2C2E87" />
<rect x="24" y="36" width="2" height="2" fill="#31338A" />
<rect x="26" y="36" width="2" height="2" fill="#393B8E" />
<rect x="28" y="36" width="2" height="2" fill="#FFFFFF" />
<rect x="30" y="36" width="2" height="2" fill="#393B8E" />
<rect x="32" y="36" width="2" height="2" fill="#31338A" />
<rect x="34" y="36" width="2" height="4" fill="#2B2D86" />
<rect x="36" y="36" width="2" height="4" fill="#2A2C86" />
<rect x="58" y="36" width="2" height="4" fill="#2A2C86" />
<rect x="60" y="36" width="2" height="2" fill="#38666F" />
<rect x="62" y="36" width="2" height="2" fill="#418963" />
<rect x="64" y="36" width="2" height="2" fill="#408663" />
<rect x="66" y="36" width="2" height="2" fill="#37666E" />
<rect x="68" y="36" width="2" height="4" fill="#2A2C86" />
<rect x="72" y="36" width="2" height="2" fill="#2F3188" />
<rect x="74" y="36" width="2" height="2" fill="#34368B" />
<rect x="76" y="36" width="2" height="2" fill="#393B8E" />
<rect x="78" y="36" width="2" height="2" fill="#34368B" />
<rect x="80" y="36" width="2" height="2" fill="#2F3188" />
<rect x="96" y="36" width="8" height="16" fill="#2A2C86" />
<rect x="108" y="36" width="2" height="2" fill="#31338A" />
<rect x="110" y="36" width="2" height="2" fill="#393B8E" />
<rect x="112" y="36" width="2" height="2" fill="#FFFFFF" />
<rect x="114" y="36" width="2" height="2" fill="#393B8E" />
<rect x="116" y="36" width="2" height="2" fill="#31338A" />
<rect x="6" y="38" width="8" height="6" fill="#2A2C86" />
<rect x="24" y="38" width="2" height="2" fill="#2F3188" />
<rect x="26" y="38" width="2" height="2" fill="#34368B" />
<rect x="28" y="38" width="2" height="2" fill="#393B8E" />
<rect x="30" y="38" width="2" height="2" fill="#34368B" />
<rect x="32" y="38" width="2" height="2" fill="#2F3188" />
<rect x="60" y="38" width="2" height="2" fill="#498D6A" />
<rect x="62" y="38" width="2" height="2" fill="#56A26E" />
<rect x="64" y="38" width="2" height="2" fill="#55AC65" />
<rect x="66" y="38" width="2" height="2" fill="#488C69" />
<rect x="72" y="38" width="2" height="2" fill="#2C2E87" />
<rect x="74" y="38" width="2" height="2" fill="#2F3188" />
<rect x="76" y="38" width="2" height="2" fill="#31338A" />
<rect x="78" y="38" width="2" height="2" fill="#2F3188" />
<rect x="80" y="38" width="2" height="2" fill="#2C2E87" />
<rect x="108" y="38" width="2" height="2" fill="#2F3188" />
<rect x="110" y="38" width="2" height="2" fill="#34368B" />
<rect x="112" y="38" width="2" height="2" fill="#393B8E" />
<rect x="114" y="38" width="2" height="2" fill="#34368B" />
<rect x="116" y="38" width="2" height="2" fill="#2F3188" />
<rect x="24" y="40" width="2" height="2" fill="#2C2E87" />
<rect x="26" y="40" width="2" height="2" fill="#2F3188" />
<rect x="28" y="40" width="2" height="2" fill="#31338A" />
<rect x="30" y="40" width="2" height="2" fill="#2F3188" />
<rect x="32" y="40" width="2" height="2" fill="#2C2E87" />
<rect x="34" y="40" width="2" height="18" fill="#2A2C86" />
<rect x="36" y="40" width="2" height="2" fill="#2C2E87" />
<rect x="38" y="40" width="2" height="2" fill="#2F3188" />
<rect x="40" y="40" width="2" height="2" fill="#31338A" />
<rect x="42" y="40" width="2" height="2" fill="#2F3188" />
<rect x="44" y="40" width="2" height="2" fill="#2C2E87" />
<rect x="46" y="40" width="8" height="12" fill="#2A2C86" />
<rect x="58" y="40" width="2" height="2" fill="#428C5D" />
<rect x="60" y="40" width="2" height="2" fill="#60AC73" />
<rect x="62" y="40" width="2" height="2" fill="#73BD81" />
<rect x="64" y="40" width="2" height="2" fill="#71C47B" />
<rect x="66" y="40" width="2" height="2" fill="#5EAB71" />
<rect x="68" y="40" width="2" height="2" fill="#418C5C" />
<rect x="72" y="40" width="10" height="8" fill="#2A2C86" />
<rect x="108" y="40" width="10" height="4" fill="#2A2C86" />
<rect x="24" y="42" width="10" height="10" fill="#2A2C86" />
<rect x="36" y="42" width="2" height="2" fill="#2F3188" />
<rect x="38" y="42" width="2" height="2" fill="#34368B" />
<rect x="40" y="42" width="2" height="2" fill="#393B8E" />
<rect x="42" y="42" width="2" height="2" fill="#34368B" />
<rect x="44" y="42" width="2" height="2" fill="#2F3188" />
<rect x="58" y="42" width="2" height="2" fill="#579476" />
<rect x="60" y="42" width="2" height="2" fill="#78C083" />
<rect x="62" y="42" width="2" height="2" fill="#96D1A0" />
<rect x="64" y="42" width="2" height="2" fill="#94D49C" />
<rect x="66" y="42" width="2" height="2" fill="#75C180" />
<rect x="68" y="42" width="2" height="2" fill="#549474" />
<rect x="82" y="42" width="2" height="2" fill="#2C2E87" />
<rect x="84" y="42" width="2" height="2" fill="#2F3188" />
<rect x="86" y="42" width="2" height="2" fill="#31338A" />
<rect x="88" y="42" width="2" height="2" fill="#2F3188" />
<rect x="90" y="42" width="2" height="2" fill="#2C2E87" />
<rect x="92" y="42" width="4" height="16" fill="#2A2C86" />
<rect x="6" y="44" width="2" height="2" fill="#2A2C86" />
<rect x="8" y="44" width="4" height="2" fill="#000000" />
<rect x="12" y="44" width="2" height="2" fill="#2A2C86" />
<rect x="36" y="44" width="2" height="2" fill="#31338A" />
<rect x="38" y="44" width="2" height="2" fill="#393B8E" />
<rect x="40" y="44" width="2" height="2" fill="#FFFFFF" />
<rect x="42" y="44" width="2" height="2" fill="#393B8E" />
<rect x="44" y="44" width="2" height="2" fill="#31338A" />
<rect x="56" y="44" width="2" height="2" fill="#458D5F" />
<rect x="58" y="44" width="2" height="2" fill="#71B381" />
<rect x="60" y="44" width="2" height="2" fill="#97D59D" />
<rect x="62" y="44" width="2" height="2" fill="#B9E1C1" />
<rect x="64" y="44" width="2" height="2" fill="#B8E1C1" />
<rect x="66" y="44" width="2" height="2" fill="#94D39C" />
<rect x="68" y="44" width="2" height="2" fill="#6CB17F" />
<rect x="70" y="44" width="2" height="2" fill="#438D5E" />
<rect x="82" y="44" width="2" height="2" fill="#2F3188" />
<rect x="84" y="44" width="2" height="2" fill="#34368B" />
<rect x="86" y="44" width="2" height="2" fill="#393B8E" />
<rect x="88" y="44" width="2" height="2" fill="#34368B" />
<rect x="90" y="44" width="2" height="2" fill="#2F3188" />
<rect x="108" y="44" width="8" height="2" fill="#2A2C86" />
<rect x="116" y="44" width="4" height="2" fill="#000000" />
<rect x="120" y="44" width="2" height="2" fill="#2A2C86" />
<rect x="6" y="46" width="2" height="2" fill="#000000" />
<rect x="8" y="46" width="4" height="8" fill="#FBF236" />
<rect x="12" y="46" width="2" height="2" fill="#000000" />
<rect x="36" y="46" width="2" height="2" fill="#2F3188" />
<rect x="38" y="46" width="2" height="2" fill="#34368B" />
<rect x="40" y="46" width="2" height="2" fill="#393B8E" />
<rect x="42" y="46" width="2" height="2" fill="#34368B" />
<rect x="44" y="46" width="2" height="2" fill="#2F3188" />
<rect x="56" y="46" width="2" height="2" fill="#62997F" />
<rect x="58" y="46" width="2" height="2" fill="#90CC97" />
<rect x="60" y="46" width="2" height="2" fill="#C1E7C4" />
<rect x="62" y="46" width="2" height="2" fill="#D9EFDE" />
<rect x="64" y="46" width="2" height="2" fill="#D8ECDF" />
<rect x="66" y="46" width="2" height="2" fill="#B3DFBB" />
<rect x="68" y="46" width="2" height="2" fill="#84C58E" />
<rect x="70" y="46" width="2" height="2" fill="#599578" />
<rect x="82" y="46" width="2" height="2" fill="#31338A" />
<rect x="84" y="46" width="2" height="2" fill="#393B8E" />
<rect x="86" y="46" width="2" height="2" fill="#FFFFFF" />
<rect x="88" y="46" width="2" height="2" fill="#393B8E" />
<rect x="90" y="46" width="2" height="2" fill="#31338A" />
<rect x="108" y="46" width="6" height="2" fill="#2A2C86" />
<rect x="114" y="46" width="2" height="2" fill="#000000" />
<rect x="116" y="46" width="4" height="8" fill="#FBF236" />
<rect x="120" y="46" width="2" height="2" fill="#000000" />
<rect x="4" y="48" width="2" height="4" fill="#000000" />
<rect x="6" y="48" width="2" height="4" fill="#FBF236" />
<rect x="12" y="48" width="2" height="4" fill="#FBF236" />
<rect x="14" y="48" width="8" height="2" fill="#000000" />
<rect x="22" y="48" width="2" height="2" fill="#2A2C86" />
<rect x="36" y="48" width="2" height="2" fill="#2C2E87" />
<rect x="38" y="48" width="2" height="2" fill="#2F3188" />
<rect x="40" y="48" width="2" height="2" fill="#31338A" />
<rect x="42" y="48" width="2" height="2" fill="#2F3188" />
<rect x="44" y="48" width="2" height="2" fill="#2C2E87" />
<rect x="54" y="48" width="2" height="2" fill="#498F63" />
<rect x="56" y="48" width="2" height="2" fill="#7DB98C" />
<rect x="58" y="48" width="2" height="2" fill="#B0E0B2" />
<rect x="60" y="48" width="2" height="2" fill="#E4F4E5" />
<rect x="62" y="48" width="2" height="2" fill="#EFF7F1" />
<rect x="64" y="48" width="2" height="2" fill="#EEF6F2" />
<rect x="66" y="48" width="2" height="2" fill="#D2EAD9" />
<rect x="68" y="48" width="2" height="2" fill="#9ED7A4" />
<rect x="70" y="48" width="2" height="2" fill="#6EB280" />
<rect x="72" y="48" width="2" height="2" fill="#448D5F" />
<rect x="74" y="48" width="8" height="4" fill="#2A2C86" />
<rect x="82" y="48" width="2" height="2" fill="#2F3188" />
<rect x="84" y="48" width="2" height="2" fill="#34368B" />
<rect x="86" y="48" width="2" height="2" fill="#393B8E" />
<rect x="88" y="48" width="2" height="2" fill="#34368B" />
<rect x="90" y="48" width="2" height="2" fill="#2F3188" />
<rect x="104" y="48" width="2" height="2" fill="#2A2C86" />
<rect x="106" y="48" width="8" height="2" fill="#000000" />
<rect x="114" y="48" width="2" height="4" fill="#FBF236" />
<rect x="120" y="48" width="2" height="4" fill="#FBF236" />
<rect x="122" y="48" width="2" height="4" fill="#000000" />
<rect x="124" y="48" width="2" height="10" fill="#2A2C86" />
<rect x="14" y="50" width="6" height="2" fill="#000000" />
<rect x="20" y="50" width="2" height="2" fill="#FBF236" />
<rect x="22" y="50" width="2" height="2" fill="#000000" />
<rect x="36" y="50" width="10" height="8" fill="#2A2C86" />
<rect x="54" y="50" width="2" height="2" fill="#60BA63" />
<rect x="56" y="50" width="2" height="2" fill="#A2D7A6" />
<rect x="58" y="50" width="2" height="2" fill="#D4EFD5" />
<rect x="60" y="50" width="2" height="2" fill="#FAFDFB" />
<rect x="62" y="50" width="4" height="2" fill="#FAFCFB" />
<rect x="66" y="50" width="2" height="2" fill="#E4F3E7" />
<rect x="68" y="50" width="2" height="2" fill="#BDE4C1" />
<rect x="70" y="50" width="2" height="2" fill="#88C891" />
<rect x="72" y="50" width="2" height="2" fill="#5A9579" />
<rect x="82" y="50" width="2" height="2" fill="#2C2E87" />
<rect x="84" y="50" width="2" height="2" fill="#2F3188" />
<rect x="86" y="50" width="2" height="2" fill="#31338A" />
<rect x="88" y="50" width="2" height="2" fill="#2F3188" />
<rect x="90" y="50" width="2" height="2" fill="#2C2E87" />
<rect x="104" y="50" width="2" height="2" fill="#000000" />
<rect x="106" y="50" width="2" height="2" fill="#FBF236" />
<rect x="108" y="50" width="6" height="2" fill="#000000" />
<rect x="4" y="52" width="2" height="6" fill="#2A2C86" />
<rect x="6" y="52" width="2" height="2" fill="#000000" />
<rect x="12" y="52" width="2" height="2" fill="#000000" />
<rect x="14" y="52" width="6" height="6" fill="#2A2C86" />
<rect x="20" y="52" width="2" height="2" fill="#000000" />
<rect x="22" y="52" width="2" height="2" fill="#FBF236" />
<rect x="24" y="52" width="2" height="2" fill="#000000" />
<rect x="26" y="52" width="8" height="2" fill="#2A2C86" />
<rect x="46" y="52" width="6" height="4" fill="#2A2C86" />
<rect x="52" y="52" width="2" height="2" fill="#4A8F63" />
<rect x="54" y="52" width="2" height="2" fill="#71CB70" />
<rect x="56" y="52" width="2" height="2" fill="#C2E8C3" />
<rect x="58" y="52" width="2" height="2" fill="#EFF9EF" />
<rect x="60" y="52" width="6" height="6" fill="#FFFFFF" />
<rect x="66" y="52" width="2" height="2" fill="#F5FAF6" />
<rect x="68" y="52" width="2" height="2" fill="#D8EFDD" />
<rect x="70" y="52" width="2" height="2" fill="#A3D9A8" />
<rect x="72" y="52" width="2" height="2" fill="#72B384" />
<rect x="74" y="52" width="2" height="2" fill="#448D5F" />
<rect x="76" y="52" width="16" height="4" fill="#2A2C86" />
<rect x="96" y="52" width="6" height="2" fill="#2A2C86" />
<rect x="102" y="52" width="2" height="2" fill="#000000" />
<rect x="104" y="52" width="2" height="2" fill="#FBF236" />
<rect x="106" y="52" width="2" height="2" fill="#000000" />
<rect x="108" y="52" width="6" height="6" fill="#2A2C86" />
<rect x="114" y="52" width="2" height="2" fill="#000000" />
<rect x="120" y="52" width="2" height="2" fill="#000000" />
<rect x="122" y="52" width="2" height="6" fill="#2A2C86" />
<rect x="6" y="54" width="2" height="4" fill="#2A2C86" />
<rect x="8" y="54" width="4" height="2" fill="#000000" />
<rect x="12" y="54" width="2" height="4" fill="#2A2C86" />
<rect x="20" y="54" width="2" height="4" fill="#2A2C86" />
<rect x="22" y="54" width="2" height="2" fill="#000000" />
<rect x="24" y="54" width="2" height="2" fill="#FBF236" />
<rect x="26" y="54" width="2" height="2" fill="#000000" />
<rect x="28" y="54" width="6" height="2" fill="#2A2C86" />
<rect x="52" y="54" width="2" height="2" fill="#60BA63" />
<rect x="54" y="54" width="2" height="2" fill="#93DB96" />
<rect x="56" y="54" width="4" height="4" fill="#FFFFFF" />
<rect x="66" y="54" width="2" height="4" fill="#FFFFFF" />
<rect x="68" y="54" width="2" height="2" fill="#EFF8F2" />
<rect x="70" y="54" width="2" height="2" fill="#CAEACE" />
<rect x="72" y="54" width="2" height="2" fill="#95C99C" />
<rect x="74" y="54" width="2" height="2" fill="#5CB860" />
<rect x="96" y="54" width="4" height="2" fill="#2A2C86" />
<rect x="100" y="54" width="2" height="2" fill="#000000" />
<rect x="102" y="54" width="2" height="2" fill="#FBF236" />
<rect x="104" y="54" width="2" height="2" fill="#000000" />
<rect x="106" y="54" width="2" height="4" fill="#2A2C86" />
<rect x="114" y="54" width="2" height="4" fill="#2A2C86" />
<rect x="116" y="54" width="4" height="2" fill="#000000" />
<rect x="120" y="54" width="2" height="4" fill="#2A2C86" />
<rect x="8" y="56" width="4" height="2" fill="#2A2C86" />
<rect x="22" y="56" width="2" height="2" fill="#2A2C86" />
<rect x="24" y="56" width="2" height="4" fill="#000000" />
<rect x="26" y="56" width="2" height="4" fill="#FBF236" />
<rect x="28" y="56" width="2" height="2" fill="#000000" />
<rect x="30" y="56" width="4" height="2" fill="#2A2C86" />
<rect x="46" y="56" width="4" height="2" fill="#2A2C86" />
<rect x="50" y="56" width="2" height="2" fill="#284E3F" />
<rect x="52" y="56" width="2" height="2" fill="#478248" />
<rect x="54" y="56" width="2" height="2" fill="#FFFFFF" />
<rect x="68" y="56" width="6" height="2" fill="#FFFFFF" />
<rect x="74" y="56" width="2" height="2" fill="#49774C" />
<rect x="76" y="56" width="2" height="2" fill="#274D3F" />
<rect x="78" y="56" width="14" height="2" fill="#2A2C86" />
<rect x="96" y="56" width="2" height="2" fill="#2A2C86" />
<rect x="98" y="56" width="2" height="2" fill="#000000" />
<rect x="100" y="56" width="2" height="4" fill="#FBF236" />
<rect x="102" y="56" width="2" height="4" fill="#000000" />
<rect x="104" y="56" width="2" height="2" fill="#2A2C86" />
<rect x="116" y="56" width="4" height="2" fill="#2A2C86" />
<rect x="2" y="58" width="22" height="2" fill="#000000" />
<rect x="28" y="58" width="2" height="6" fill="#FBF236" />
<rect x="30" y="58" width="68" height="2" fill="#000000" />
<rect x="98" y="58" width="2" height="6" fill="#FBF236" />
<rect x="104" y="58" width="22" height="2" fill="#000000" />
<rect x="2" y="60" width="24" height="22" fill="#4B692F" />
<rect x="26" y="60" width="2" height="4" fill="#000000" />
<rect x="30" y="60" width="2" height="4" fill="#000000" />
<rect x="32" y="60" width="64" height="4" fill="#4B692F" />
<rect x="96" y="60" width="2" height="4" fill="#000000" />
<rect x="100" y="60" width="2" height="4" fill="#000000" />
<rect x="102" y="60" width="24" height="22" fill="#4B692F" />
<rect x="26" y="64" width="2" height="18" fill="#4B692F" />
<rect x="28" y="64" width="2" height="18" fill="#000000" />
<rect x="30" y="64" width="2" height="62" fill="#FBF236" />
<rect x="32" y="64" width="2" height="14" fill="#000000" />
<rect x="34" y="64" width="60" height="8" fill="#4B692F" />
<rect x="94" y="64" width="2" height="14" fill="#000000" />
<rect x="96" y="64" width="2" height="62" fill="#FBF236" />
<rect x="98" y="64" width="2" height="18" fill="#000000" />
<rect x="100" y="64" width="2" height="18" fill="#4B692F" />
<rect x="34" y="72" width="18" height="2" fill="#4B692F" />
<rect x="52" y="72" width="24" height="2" fill="#000000" />
<rect x="76" y="72" width="18" height="2" fill="#4B692F" />
<rect x="34" y="74" width="10" height="2" fill="#4B692F" />
<rect x="44" y="74" width="8" height="2" fill="#000000" />
<rect x="52" y="74" width="24" height="52" fill="#FBF236" />
<rect x="76" y="74" width="8" height="2" fill="#000000" />
<rect x="84" y="74" width="10" height="2" fill="#4B692F" />
<rect x="34" y="76" width="4" height="2" fill="#4B692F" />
<rect x="38" y="76" width="6" height="2" fill="#000000" />
<rect x="44" y="76" width="8" height="50" fill="#FBF236" />
<rect x="76" y="76" width="8" height="50" fill="#FBF236" />
<rect x="84" y="76" width="6" height="2" fill="#000000" />
<rect x="90" y="76" width="4" height="2" fill="#4B692F" />
<rect x="32" y="78" width="2" height="48" fill="#FBF236" />
<rect x="34" y="78" width="4" height="2" fill="#000000" />
<rect x="38" y="78" width="6" height="48" fill="#FBF236" />
<rect x="84" y="78" width="6" height="48" fill="#FBF236" />
<rect x="90" y="78" width="4" height="2" fill="#000000" />
<rect x="94" y="78" width="2" height="48" fill="#FBF236" />
<rect x="34" y="80" width="4" height="46" fill="#FBF236" />
<rect x="90" y="80" width="4" height="46" fill="#FBF236" />
<rect x="2" y="82" width="22" height="2" fill="#4B692F" />
<rect x="24" y="82" width="4" height="2" fill="#000000" />
<rect x="28" y="82" width="2" height="44" fill="#FBF236" />
<rect x="98" y="82" width="2" height="44" fill="#FBF236" />
<rect x="100" y="82" width="4" height="2" fill="#000000" />
<rect x="104" y="82" width="22" height="2" fill="#4B692F" />
<rect x="2" y="84" width="20" height="2" fill="#4B692F" />
<rect x="22" y="84" width="2" height="2" fill="#000000" />
<rect x="24" y="84" width="4" height="42" fill="#FBF236" />
<rect x="100" y="84" width="4" height="42" fill="#FBF236" />
<rect x="104" y="84" width="2" height="2" fill="#000000" />
<rect x="106" y="84" width="20" height="2" fill="#4B692F" />
<rect x="2" y="86" width="18" height="2" fill="#4B692F" />
<rect x="20" y="86" width="2" height="2" fill="#000000" />
<rect x="22" y="86" width="2" height="40" fill="#FBF236" />
<rect x="104" y="86" width="2" height="40" fill="#FBF236" />
<rect x="106" y="86" width="2" height="2" fill="#000000" />
<rect x="108" y="86" width="18" height="2" fill="#4B692F" />
<rect x="2" y="88" width="14" height="2" fill="#4B692F" />
<rect x="16" y="88" width="4" height="2" fill="#000000" />
<rect x="20" y="88" width="2" height="38" fill="#FBF236" />
<rect x="106" y="88" width="2" height="38" fill="#FBF236" />
<rect x="108" y="88" width="4" height="2" fill="#000000" />
<rect x="112" y="88" width="14" height="2" fill="#4B692F" />
<rect x="2" y="90" width="12" height="2" fill="#4B692F" />
<rect x="14" y="90" width="2" height="2" fill="#000000" />
<rect x="16" y="90" width="4" height="36" fill="#FBF236" />
<rect x="108" y="90" width="4" height="36" fill="#FBF236" />
<rect x="112" y="90" width="2" height="2" fill="#000000" />
<rect x="114" y="90" width="12" height="2" fill="#4B692F" />
<rect x="2" y="92" width="10" height="2" fill="#4B692F" />
<rect x="12" y="92" width="2" height="2" fill="#000000" />
<rect x="14" y="92" width="2" height="34" fill="#FBF236" />
<rect x="112" y="92" width="2" height="34" fill="#FBF236" />
<rect x="114" y="92" width="2" height="2" fill="#000000" />
<rect x="116" y="92" width="10" height="2" fill="#4B692F" />
<rect x="2" y="94" width="8" height="4" fill="#4B692F" />
<rect x="10" y="94" width="2" height="4" fill="#000000" />
<rect x="12" y="94" width="2" height="32" fill="#FBF236" />
<rect x="114" y="94" width="2" height="32" fill="#FBF236" />
<rect x="116" y="94" width="2" height="4" fill="#000000" />
<rect x="118" y="94" width="8" height="4" fill="#4B692F" />
<rect x="2" y="98" width="6" height="2" fill="#4B692F" />
<rect x="8" y="98" width="2" height="2" fill="#000000" />
<rect x="10" y="98" width="2" height="28" fill="#FBF236" />
<rect x="116" y="98" width="2" height="28" fill="#FBF236" />
<rect x="118" y="98" width="2" height="2" fill="#000000" />
<rect x="120" y="98" width="6" height="2" fill="#4B692F" />
<rect x="2" y="100" width="4" height="4" fill="#4B692F" />
<rect x="6" y="100" width="2" height="4" fill="#000000" />
<rect x="8" y="100" width="2" height="26" fill="#FBF236" />
<rect x="118" y="100" width="2" height="26" fill="#FBF236" />
<rect x="120" y="100" width="2" height="4" fill="#000000" />
<rect x="122" y="100" width="4" height="4" fill="#4B692F" />
<rect x="2" y="104" width="2" height="4" fill="#4B692F" />
<rect x="4" y="104" width="2" height="4" fill="#000000" />
<rect x="6" y="104" width="2" height="22" fill="#FBF236" />
<rect x="120" y="104" width="2" height="22" fill="#FBF236" />
<rect x="122" y="104" width="2" height="4" fill="#000000" />
<rect x="124" y="104" width="2" height="4" fill="#4B692F" />
<rect x="2" y="108" width="2" height="6" fill="#000000" />
<rect x="4" y="108" width="2" height="18" fill="#FBF236" />
<rect x="122" y="108" width="2" height="18" fill="#FBF236" />
<rect x="124" y="108" width="2" height="6" fill="#000000" />
<rect x="2" y="114" width="2" height="12" fill="#FBF236" />
<rect x="124" y="114" width="2" height="12" fill="#FBF236" />
<rect x="2" y="126" width="124" height="2" fill="#000000" />
</svg>